<!DOCTYPE svg PUBLIC "-//W3C//DTD SVG 20010904//EN" "http://www.w3.org/TR/2001/REC-SVG-20010904/DTD/svg10.dtd">
<svg version="1.0" xmlns="http://www.w3.org/2000/svg" width="18px" height="20px" viewBox="0 0 180 200" preserveAspectRatio="xMidYMid meet">
<g id="layer101" fill="#67cc67" stroke="none">
 <path d="M0 100 l0 -100 90 0 90 0 0 100 0 100 -90 0 -90 0 0 -100z"/>
 </g>
<g id="layer102" fill="#82d680" stroke="none">
 <path d="M0 100 l0 -100 90 0 90 0 0 100 0 100 -90 0 -90 0 0 -100z m94 38 l73 -42 -73 -43 c-40 -24 -76 -43 -79 -43 -3 0 -5 38 -5 85 0 47 2 85 5 85 3 0 39 -19 79 -42z"/>
 </g>
<g id="layer103" fill="#96dc96" stroke="none">
 <path d="M0 100 l0 -100 90 0 90 0 0 100 0 100 -90 0 -90 0 0 -100z m96 38 l74 -42 -73 -43 c-39 -23 -75 -43 -79 -43 -5 0 -8 38 -8 85 0 47 3 85 6 85 4 0 40 -19 80 -42z"/>
 </g>
<g id="layer104" fill="#b5e6b3" stroke="none">
 <path d="M2 98 l2 -103 5 96 6 97 72 -42 c40 -23 75 -44 78 -48 3 -3 -22 -22 -57 -42 -102 -57 -101 -56 -10 -56 l82 0 0 100 0 100 -90 0 -90 0 2 -102z"/>
 </g>
<g id="layer105" fill="#d4f1d4" stroke="none">
 <path d="M2 98 l2 -103 5 97 6 97 78 -45 c43 -25 76 -48 73 -52 -4 -3 -39 -25 -79 -49 l-72 -43 83 0 82 0 0 100 0 100 -90 0 -90 0 2 -102z"/>
 </g>
<g id="layer106" fill="#fdfefd" stroke="none">
 <path d="M2 98 l2 -103 3 98 c2 53 7 97 11 96 17 -1 147 -86 146 -94 -1 -6 -28 -26 -62 -45 -33 -20 -64 -39 -68 -43 -4 -4 27 -7 69 -7 l77 0 0 100 0 100 -90 0 -90 0 2 -102z"/>
 </g>

</svg>