<!DOCTYPE svg PUBLIC "-//W3C//DTD SVG 20010904//EN" "http://www.w3.org/TR/2001/REC-SVG-20010904/DTD/svg10.dtd">
<svg version="1.0" xmlns="http://www.w3.org/2000/svg" width="12px" height="21px" viewBox="0 0 120 210" preserveAspectRatio="xMidYMid meet">
<g id="layer101" fill="#69cd69" stroke="none">
 <path d="M0 105 l0 -105 60 0 60 0 0 105 0 105 -60 0 -60 0 0 -105z"/>
 </g>
<g id="layer102" fill="#a0dfa0" stroke="none">
 <path d="M0 105 l0 -105 60 0 60 0 0 105 0 105 -60 0 -60 0 0 -105z m70 40 l-44 -45 44 -45 c24 -25 40 -45 34 -45 -5 0 -30 20 -54 45 l-44 45 44 45 c24 25 49 45 54 45 6 0 -10 -20 -34 -45z"/>
 </g>
<g id="layer103" fill="#b3e6b4" stroke="none">
 <path d="M0 105 l0 -105 52 0 52 0 -49 50 -49 50 46 47 c26 26 51 44 55 40 4 -4 -12 -26 -35 -50 l-41 -42 33 -30 c18 -17 38 -39 44 -50 9 -16 11 2 12 88 l0 107 -60 0 -60 0 0 -105z"/>
 </g>
<g id="layer104" fill="#d2f0d1" stroke="none">
 <path d="M0 105 l0 -105 51 0 51 0 -46 45 c-25 24 -46 48 -46 53 0 4 22 30 50 57 57 56 69 41 13 -17 l-37 -38 36 -37 c19 -21 38 -45 41 -53 3 -8 6 33 6 93 l1 107 -60 0 -60 0 0 -105z"/>
 </g>
<g id="layer105" fill="#fefefd" stroke="none">
 <path d="M0 155 l0 -54 46 49 c26 28 51 50 55 50 19 0 7 -26 -28 -62 l-37 -38 36 -37 c19 -21 38 -45 41 -53 3 -8 6 33 6 93 l1 107 -60 0 -60 0 0 -55z"/>
 <path d="M0 47 l0 -47 45 0 c25 0 45 1 45 3 0 2 -20 23 -45 47 l-45 44 0 -47z"/>
 </g>

</svg>